<svg width="33" height="33" viewBox="0 0 33 33" fill="none" xmlns="http://www.w3.org/2000/svg">
<path d="M30.3548 15.9029C29.6908 15.6816 29.0268 15.534 28.3628 15.3127C27.0349 15.0176 25.7069 14.7225 24.4527 14.5011C23.7887 14.4274 23.1247 14.3536 22.5345 14.2798C20.6901 14.0585 19.1408 12.583 18.9195 10.6648C18.8457 10.0008 18.7719 9.3368 18.6981 8.74659C18.4768 7.41862 18.2555 6.09065 17.8866 4.83645C17.739 4.17247 17.5177 3.50848 17.2964 2.8445C17.0751 2.18051 16.8537 1.51652 16.5586 0.852539C16.2635 1.51652 16.0422 2.18051 15.8209 2.8445C15.5995 3.50848 15.452 4.17247 15.2307 4.83645C14.9356 6.16442 14.6404 7.49239 14.4191 8.74659C14.3453 9.41058 14.2716 10.0746 14.1978 10.6648C13.9765 12.5092 12.5009 14.0585 10.5827 14.2798C9.91875 14.3536 9.25478 14.4274 8.66457 14.5011C7.3366 14.7225 6.00864 14.9438 4.75444 15.3127C4.09045 15.4602 3.42646 15.6816 2.76247 15.9029C2.09849 16.1242 1.43449 16.3455 0.770508 16.6406C1.43449 16.9357 2.09849 17.1571 2.76247 17.3784C3.42646 17.5997 4.09045 17.7473 4.75444 17.9686C6.08241 18.2637 7.41037 18.5588 8.66457 18.7801C9.32856 18.8539 9.99252 18.9277 10.5827 19.0015C12.4271 19.2228 13.9765 20.6983 14.1978 22.6165C14.2716 23.2805 14.3453 23.9445 14.4191 24.5347C14.6404 25.8627 14.8618 27.1906 15.2307 28.4448C15.3782 29.1088 15.5995 29.7728 15.8209 30.4368C16.0422 31.1008 16.2635 31.7648 16.5586 32.4287C16.8537 31.7648 17.0751 31.1008 17.2964 30.4368C17.5177 29.7728 17.6653 29.1088 17.8866 28.4448C18.1817 27.1169 18.4768 25.7889 18.6981 24.5347C18.7719 23.8707 18.8457 23.2067 18.9195 22.6165C19.1408 20.7721 20.6163 19.2228 22.5345 19.0015C23.1985 18.9277 23.8625 18.8539 24.4527 18.7801C25.7807 18.5588 27.1086 18.3375 28.3628 17.9686C29.0268 17.8211 29.6908 17.5997 30.3548 17.3784C31.0188 17.1571 31.6827 16.9357 32.3467 16.6406C31.6827 16.3455 31.0188 16.1242 30.3548 15.9029Z" fill="white"/>
</svg>
