<svg width="18" height="18" viewBox="0 0 18 18" fill="none" xmlns="http://www.w3.org/2000/svg">
<path d="M16.203 8.78384C15.8491 8.66587 15.4952 8.5715 15.1177 8.47712C14.4099 8.28837 13.6785 8.14681 12.9707 8.05244C12.6168 8.00525 12.2629 7.95806 11.909 7.91087C10.8944 7.79291 10.0687 6.99072 9.9507 5.9526C9.90351 5.59869 9.85631 5.24479 9.80913 4.89088C9.69116 4.18307 9.5496 3.45167 9.38444 2.74386C9.29007 2.38995 9.1957 2.03605 9.07773 1.65855C8.95976 1.30465 8.84179 0.950741 8.67663 0.573242C8.51148 0.927147 8.39351 1.28105 8.27554 1.65855C8.15757 2.01246 8.0632 2.36636 7.96882 2.74386C7.78007 3.45167 7.63851 4.18307 7.54414 4.89088C7.49695 5.24479 7.44977 5.59869 7.40258 5.9526C7.28461 6.96713 6.48242 7.79291 5.4443 7.91087C5.09039 7.95806 4.73649 8.00525 4.38258 8.05244C3.67477 8.1704 2.94337 8.31197 2.23556 8.47712C1.88166 8.5715 1.52776 8.66587 1.15026 8.78384C0.796354 8.90181 0.44244 9.01978 0.0649414 9.18493C0.418847 9.35009 0.77276 9.46806 1.15026 9.58603C1.50416 9.70399 1.85806 9.79837 2.23556 9.89274C2.94337 10.0815 3.67477 10.2231 4.38258 10.3174C4.73649 10.3646 5.09039 10.4118 5.4443 10.459C6.45882 10.577 7.28461 11.3791 7.40258 12.4173C7.44977 12.7712 7.49695 13.1251 7.54414 13.479C7.66211 14.1868 7.80367 14.9182 7.96882 15.626C8.0632 15.9799 8.15757 16.3338 8.27554 16.7113C8.39351 17.0652 8.51148 17.4191 8.67663 17.7966C8.84179 17.4427 8.95976 17.0888 9.07773 16.7113C9.1957 16.3574 9.29007 16.0035 9.38444 15.626C9.57319 14.9182 9.71475 14.1868 9.80913 13.479C9.85631 13.1251 9.90351 12.7712 9.9507 12.4173C10.0687 11.4027 10.8708 10.577 11.909 10.459C12.2629 10.4118 12.6168 10.3646 12.9707 10.3174C13.6785 10.1995 14.4099 10.0579 15.1177 9.89274C15.4716 9.79837 15.8255 9.70399 16.203 9.58603C16.5569 9.46806 16.9108 9.35009 17.2883 9.18493C16.9108 9.01978 16.5569 8.90181 16.203 8.78384Z" fill="white"/>
</svg>
