<svg width="33" height="33" viewBox="0 0 33 33" fill="none" xmlns="http://www.w3.org/2000/svg">
<path d="M30.1439 15.9556C29.4799 15.7343 28.8159 15.5867 28.1519 15.3654C26.8239 15.0703 25.496 14.7752 24.2418 14.5539C23.5778 14.4801 22.9138 14.4063 22.3235 14.3325C20.4791 14.1112 18.9299 12.6357 18.7085 10.7175C18.6348 10.0535 18.561 9.38953 18.4872 8.79932C18.2658 7.47135 18.0445 6.14338 17.6757 4.88919C17.5281 4.2252 17.3068 3.56122 17.0855 2.89723C16.8641 2.23324 16.6428 1.56926 16.3477 0.905273C16.0526 1.56926 15.8313 2.23324 15.6099 2.89723C15.3886 3.56122 15.2411 4.2252 15.0197 4.88919C14.7246 6.21716 14.4295 7.54513 14.2082 8.79932C14.1344 9.46331 14.0606 10.1273 13.9868 10.7175C13.7655 12.5619 12.29 14.1112 10.3718 14.3325C9.70781 14.4063 9.04384 14.4801 8.45363 14.5539C7.12566 14.7752 5.7977 14.9965 4.5435 15.3654C3.87952 15.513 3.21552 15.7343 2.55154 15.9556C1.88755 16.1769 1.22356 16.3983 0.55957 16.6934C1.22356 16.9885 1.88755 17.2098 2.55154 17.4311C3.21552 17.6525 3.87952 17.8 4.5435 18.0213C5.87147 18.3165 7.19944 18.6116 8.45363 18.8329C9.11762 18.9067 9.78159 18.9804 10.3718 19.0542C12.2162 19.2755 13.7655 20.7511 13.9868 22.6692C14.0606 23.3332 14.1344 23.9972 14.2082 24.5874C14.4295 25.9154 14.6509 27.2434 15.0197 28.4976C15.1673 29.1616 15.3886 29.8255 15.6099 30.4895C15.8313 31.1535 16.0526 31.8175 16.3477 32.4815C16.6428 31.8175 16.8641 31.1535 17.0855 30.4895C17.3068 29.8255 17.4543 29.1616 17.6757 28.4976C17.9708 27.1696 18.2658 25.8416 18.4872 24.5874C18.561 23.9234 18.6348 23.2595 18.7085 22.6692C18.9299 20.8248 20.4054 19.2755 22.3235 19.0542C22.9875 18.9804 23.6515 18.9067 24.2418 18.8329C25.5697 18.6116 26.8977 18.3902 28.1519 18.0213C28.8159 17.8738 29.4799 17.6525 30.1439 17.4311C30.8078 17.2098 31.4718 16.9885 32.1358 16.6934C31.4718 16.3983 30.8078 16.1769 30.1439 15.9556Z" fill="white"/>
</svg>
