<svg width="41" height="41" viewBox="0 0 41 41" fill="none" xmlns="http://www.w3.org/2000/svg">
<path d="M37.8037 19.3089C36.9779 19.0337 36.1521 18.8135 35.2713 18.5933C33.6197 18.1529 31.9132 17.8225 30.2616 17.6023C29.4358 17.4922 28.61 17.3821 27.7843 17.272C25.417 16.9968 23.4902 15.125 23.215 12.7027C23.1049 11.8769 22.9947 11.0512 22.8846 10.2254C22.6094 8.57382 22.2791 6.86721 21.8937 5.21565C21.6735 4.38987 21.4533 3.5641 21.178 2.68327C20.9028 1.85749 20.6275 1.03171 20.2421 0.150879C19.8568 0.976658 19.5815 1.80244 19.3063 2.68327C19.031 3.50904 18.8108 4.33482 18.5906 5.21565C18.1502 6.86721 17.8199 8.57382 17.5997 10.2254C17.4896 11.0512 17.3795 11.8769 17.2694 12.7027C16.9941 15.0699 15.1223 16.9968 12.7 17.272C11.8742 17.3821 11.0485 17.4922 10.2227 17.6023C8.57113 17.8776 6.86453 18.2079 5.21298 18.5933C4.3872 18.8135 3.56143 19.0337 2.6806 19.3089C1.85482 19.5842 1.02902 19.8595 0.148193 20.2448C0.973972 20.6302 1.79977 20.9054 2.6806 21.1807C3.50638 21.456 4.33215 21.6762 5.21298 21.8964C6.86453 22.3368 8.57113 22.6671 10.2227 22.8873C11.0485 22.9974 11.8742 23.1075 12.7 23.2176C15.0673 23.4929 16.9941 25.3647 17.2694 27.7869C17.3795 28.6127 17.4896 29.4385 17.5997 30.2643C17.8749 31.9158 18.2052 33.6224 18.5906 35.274C18.8108 36.0998 19.031 36.9256 19.3063 37.8064C19.5815 38.6322 19.8568 39.4579 20.2421 40.3388C20.6275 39.513 20.9028 38.6872 21.178 37.8064C21.4533 36.9806 21.6735 36.1548 21.8937 35.274C22.3341 33.6224 22.6644 31.9158 22.8846 30.2643C22.9947 29.4385 23.1049 28.6127 23.215 27.7869C23.4902 25.4197 25.362 23.4929 27.7843 23.2176C28.61 23.1075 29.4358 22.9974 30.2616 22.8873C31.9132 22.6121 33.6197 22.2817 35.2713 21.8964C36.0971 21.6762 36.9229 21.456 37.8037 21.1807C38.6295 20.9054 39.4553 20.6302 40.3361 20.2448C39.4553 19.8595 38.6295 19.5842 37.8037 19.3089Z" fill="white"/>
</svg>
