<svg width="18" height="19" viewBox="0 0 18 19" fill="none" xmlns="http://www.w3.org/2000/svg">
<path d="M16.3822 9.12173C16.0283 9.00376 15.6744 8.90939 15.2969 8.81501C14.5891 8.62626 13.8577 8.4847 13.1499 8.39033C12.796 8.34314 12.4421 8.29595 12.0882 8.24877C11.0736 8.1308 10.2479 7.32861 10.1299 6.29049C10.0827 5.93659 10.0355 5.58268 9.98833 5.22878C9.87036 4.52096 9.7288 3.78956 9.56364 3.08175C9.46927 2.72785 9.3749 2.37394 9.25693 1.99644C9.13896 1.64254 9.02099 1.28863 8.85583 0.911133C8.69068 1.26504 8.57271 1.61894 8.45474 1.99644C8.33677 2.35035 8.2424 2.70425 8.14802 3.08175C7.95927 3.78956 7.81771 4.52096 7.72334 5.22878C7.67615 5.58268 7.62897 5.93659 7.58178 6.29049C7.46381 7.30502 6.66162 8.1308 5.6235 8.24877C5.26959 8.29595 4.91569 8.34314 4.56178 8.39033C3.85397 8.5083 3.12257 8.64986 2.41476 8.81501C2.06086 8.90939 1.70696 9.00376 1.32946 9.12173C0.975553 9.2397 0.621639 9.35767 0.244141 9.52282C0.598046 9.68798 0.951959 9.80595 1.32946 9.92392C1.68336 10.0419 2.03726 10.1363 2.41476 10.2306C3.12257 10.4194 3.85397 10.5609 4.56178 10.6553C4.91569 10.7025 5.26959 10.7497 5.6235 10.7969C6.63802 10.9149 7.46381 11.717 7.58178 12.7552C7.62897 13.1091 7.67615 13.463 7.72334 13.8169C7.84131 14.5247 7.98287 15.2561 8.14802 15.9639C8.2424 16.3178 8.33677 16.6717 8.45474 17.0492C8.57271 17.4031 8.69068 17.757 8.85583 18.1345C9.02099 17.7806 9.13896 17.4267 9.25693 17.0492C9.3749 16.6953 9.46927 16.3414 9.56364 15.9639C9.75239 15.2561 9.89395 14.5247 9.98833 13.8169C10.0355 13.463 10.0827 13.1091 10.1299 12.7552C10.2479 11.7406 11.05 10.9149 12.0882 10.7969C12.4421 10.7497 12.796 10.7025 13.1499 10.6553C13.8577 10.5374 14.5891 10.3958 15.2969 10.2306C15.6508 10.1363 16.0047 10.0419 16.3822 9.92392C16.7361 9.80595 17.09 9.68798 17.4675 9.52282C17.09 9.35767 16.7361 9.2397 16.3822 9.12173Z" fill="white"/>
</svg>
