<svg width="18" height="18" viewBox="0 0 18 18" fill="none" xmlns="http://www.w3.org/2000/svg">
<path d="M16.6183 8.28091C16.2644 8.16294 15.9105 8.06857 15.533 7.97419C14.8252 7.78544 14.0938 7.64388 13.386 7.54951C13.0321 7.50232 12.6782 7.45513 12.3243 7.40795C11.3097 7.28998 10.4839 6.48779 10.366 5.44967C10.3188 5.09577 10.2716 4.74186 10.2244 4.38795C10.1064 3.68014 9.96488 2.94874 9.79973 2.24093C9.70535 1.88702 9.61098 1.53312 9.49301 1.15562C9.37504 0.801716 9.25707 0.447811 9.09192 0.0703125C8.92676 0.424218 8.80879 0.778122 8.69082 1.15562C8.57285 1.50953 8.47848 1.86343 8.38411 2.24093C8.19536 2.94874 8.0538 3.68014 7.95942 4.38795C7.91223 4.74186 7.86505 5.09577 7.81787 5.44967C7.6999 6.4642 6.8977 7.28998 5.85958 7.40795C5.50567 7.45513 5.15177 7.50232 4.79786 7.54951C4.09005 7.66748 3.35866 7.80904 2.65085 7.97419C2.29694 8.06857 1.94304 8.16294 1.56554 8.28091C1.21164 8.39888 0.857723 8.51685 0.480225 8.682C0.83413 8.84716 1.18804 8.96513 1.56554 9.0831C1.91945 9.20106 2.27335 9.29544 2.65085 9.38981C3.35866 9.57856 4.09005 9.72012 4.79786 9.8145C5.15177 9.86169 5.50567 9.90888 5.85958 9.95606C6.87411 10.074 7.6999 10.8762 7.81787 11.9143C7.86505 12.2682 7.91223 12.6221 7.95942 12.9761C8.07739 13.6839 8.21895 14.4153 8.38411 15.1231C8.47848 15.477 8.57285 15.8309 8.69082 16.2084C8.80879 16.5623 8.92676 16.9162 9.09192 17.2937C9.25707 16.9398 9.37504 16.5859 9.49301 16.2084C9.61098 15.8545 9.70535 15.5006 9.79973 15.1231C9.98848 14.4153 10.13 13.6839 10.2244 12.9761C10.2716 12.6221 10.3188 12.2682 10.366 11.9143C10.4839 10.8998 11.2861 10.074 12.3243 9.95606C12.6782 9.90888 13.0321 9.86169 13.386 9.8145C14.0938 9.69653 14.8252 9.55497 15.533 9.38981C15.8869 9.29544 16.2408 9.20106 16.6183 9.0831C16.9722 8.96513 17.3261 8.84716 17.7036 8.682C17.3261 8.51685 16.9722 8.39888 16.6183 8.28091Z" fill="white"/>
</svg>
