<svg width="720" height="756" viewBox="0 0 720 756" fill="none" xmlns="http://www.w3.org/2000/svg">
<g opacity="0.5" filter="url(#filter0_f_2_957)">
<path d="M339.926 263.668C338.778 257.927 339.447 131.144 339.926 68.4697M339.926 263.668L250.939 344.044M339.926 263.668L411.69 302.421M339.926 68.4697L60.046 263.668M339.926 68.4697L672.911 187.598M339.926 68.4697L372.937 -32M60.046 263.668L74.3988 596.654M60.046 263.668L250.939 344.044M60.046 263.668L-69.1294 216.304M74.3988 596.654L431.784 669.853M74.3988 596.654L273.903 430.161M74.3988 596.654L-0.235853 655.5M431.784 669.853L687.264 516.278M431.784 669.853L372.937 441.643M431.784 669.853L443.266 754.535M687.264 516.278L672.911 187.598M687.264 516.278L431.784 381.361M687.264 516.278L767.64 596.654M672.911 187.598L411.69 302.421M672.911 187.598H783.428M250.939 344.044L273.903 430.161M273.903 430.161L372.937 441.643M372.937 441.643L431.784 381.361M431.784 381.361L411.69 302.421" stroke="white" stroke-width="0.2"/>
</g>
<defs>
<filter id="filter0_f_2_957" x="-70.1638" y="-33.0312" width="854.592" height="788.579" filterUnits="userSpaceOnUse" color-interpolation-filters="sRGB">
<feFlood flood-opacity="0" result="BackgroundImageFix"/>
<feBlend mode="normal" in="SourceGraphic" in2="BackgroundImageFix" result="shape"/>
<feGaussianBlur stdDeviation="0.5" result="effect1_foregroundBlur_2_957"/>
</filter>
</defs>
</svg>
